<svg xmlns="http://www.w3.org/2000/svg" xmlns:xlink="http://www.w3.org/1999/xlink" width="25" height="25" viewBox="0 0 25 25">
  <defs>
    <clipPath id="clip-path">
      <rect id="Ret창ngulo_9" data-name="Ret창ngulo 9" width="18.719" height="18.818" fill="#fff"/>
    </clipPath>
  </defs>
  <g id="Grupo_15" data-name="Grupo 15" transform="translate(-331 -111)">
    <rect id="Ret창ngulo_12" data-name="Ret창ngulo 12" width="25" height="25" rx="4" transform="translate(331 111)" fill="#206c5d"/>
    <g id="Grupo_12" data-name="Grupo 12" transform="translate(334.14 114.091)">
      <g id="Grupo_11" data-name="Grupo 11" clip-path="url(#clip-path)">
        <path id="Caminho_20" data-name="Caminho 20" d="M256.764,3.771a.251.251,0,0,1-.23-.15A9.148,9.148,0,0,0,254.065.445a.251.251,0,0,1,.32-.387,9.674,9.674,0,0,1,2.609,3.36.251.251,0,0,1-.23.352" transform="translate(-244.865 -0.001)" fill="#fff"/>
        <path id="Caminho_21" data-name="Caminho 21" d="M278.3,77.536a.251.251,0,0,1-.251-.244,8.077,8.077,0,0,0-2.308-4.554,9.285,9.285,0,0,0-2.569,2.6.251.251,0,0,1-.435-.25,9.377,9.377,0,0,1,2.946-2.887.251.251,0,0,1,.284.05,8.716,8.716,0,0,1,2.583,5.027.251.251,0,0,1-.244.258H278.3" transform="translate(-262.919 -69.589)" fill="#fff"/>
        <path id="Caminho_22" data-name="Caminho 22" d="M317.883,210.487h-.013a.251.251,0,0,1-.237-.264,9.669,9.669,0,0,0-.868-4.143,7.959,7.959,0,0,0-3.928,2.364.251.251,0,1,1-.4-.307,8.53,8.53,0,0,1,4.406-2.6.251.251,0,0,1,.286.135,10.252,10.252,0,0,1,1,4.573.251.251,0,0,1-.25.238" transform="translate(-301.183 -198.162)" fill="#fff"/>
        <path id="Caminho_23" data-name="Caminho 23" d="M257.032,213.759a.251.251,0,0,1-.232-.348,3.3,3.3,0,0,0-.5-2.672,9.8,9.8,0,0,0-2.234-2.7.251.251,0,0,1,.32-.387,10.323,10.323,0,0,1,2.355,2.85,3.838,3.838,0,0,1,.525,3.106.251.251,0,0,1-.232.154" transform="translate(-244.864 -200.146)" fill="#fff"/>
        <path id="Caminho_24" data-name="Caminho 24" d="M256,343.948a.251.251,0,0,1-.242-.184,4.764,4.764,0,0,0-1.682-2.184.251.251,0,0,1,.3-.4,5.279,5.279,0,0,1,1.866,2.453.251.251,0,0,1-.242.318" transform="translate(-244.864 -328.893)" fill="#fff"/>
        <path id="Caminho_25" data-name="Caminho 25" d="M183.426,3.77a.251.251,0,0,1-.23-.352,9.674,9.674,0,0,1,2.609-3.36.251.251,0,0,1,.32.387,9.148,9.148,0,0,0-2.469,3.175.251.251,0,0,1-.23.15" transform="translate(-176.606 0)" fill="#fff"/>
        <path id="Caminho_26" data-name="Caminho 26" d="M86.454,77.535h-.007a.251.251,0,0,1-.244-.258,8.716,8.716,0,0,1,2.583-5.027.251.251,0,0,1,.284-.05,9.377,9.377,0,0,1,2.946,2.887.251.251,0,1,1-.435.25,9.285,9.285,0,0,0-2.569-2.6A8.077,8.077,0,0,0,86.7,77.291a.251.251,0,0,1-.251.244" transform="translate(-83.111 -69.588)" fill="#fff"/>
        <path id="Caminho_27" data-name="Caminho 27" d="M49.343,210.487a.251.251,0,0,1-.25-.238,10.253,10.253,0,0,1,1-4.573.251.251,0,0,1,.286-.135,8.53,8.53,0,0,1,4.406,2.6.251.251,0,1,1-.4.307,7.959,7.959,0,0,0-3.928-2.364,9.669,9.669,0,0,0-.868,4.143.251.251,0,0,1-.237.264h-.013" transform="translate(-47.324 -198.162)" fill="#fff"/>
        <path id="Caminho_28" data-name="Caminho 28" d="M172.092,213.758a.251.251,0,0,1-.232-.154,3.838,3.838,0,0,1,.525-3.106,10.323,10.323,0,0,1,2.355-2.85.251.251,0,0,1,.32.387,9.8,9.8,0,0,0-2.234,2.7,3.3,3.3,0,0,0-.5,2.672.251.251,0,0,1-.232.348" transform="translate(-165.54 -200.145)" fill="#fff"/>
        <path id="Caminho_29" data-name="Caminho 29" d="M204.767,343.949a.251.251,0,0,1-.242-.318,5.279,5.279,0,0,1,1.866-2.453.251.251,0,0,1,.3.4,4.763,4.763,0,0,0-1.682,2.184.251.251,0,0,1-.242.184" transform="translate(-197.181 -328.894)" fill="#fff"/>
        <path id="Caminho_30" data-name="Caminho 30" d="M9.36,336.475a6.144,6.144,0,0,1-3.622-.957A8.441,8.441,0,0,1,3.765,333.4a7.127,7.127,0,0,0-3.6-3,.251.251,0,0,1-.008-.471,6.984,6.984,0,0,1,5.809.4,3.483,3.483,0,0,1,1.864,2.251.251.251,0,0,1-.495.087,3,3,0,0,0-1.616-1.9,6.5,6.5,0,0,0-4.736-.58A7.935,7.935,0,0,1,4.17,333.1c1.128,1.542,2.1,2.873,5.189,2.873s4.061-1.331,5.189-2.873a7.935,7.935,0,0,1,3.184-2.915,6.5,6.5,0,0,0-4.736.58,3,3,0,0,0-1.616,1.9.251.251,0,0,1-.495-.087,3.483,3.483,0,0,1,1.864-2.251,6.985,6.985,0,0,1,5.809-.4.251.251,0,0,1-.008.471,7.127,7.127,0,0,0-3.6,3,8.441,8.441,0,0,1-1.972,2.122,6.144,6.144,0,0,1-3.622.957" transform="translate(0 -317.657)" fill="#fff"/>
      </g>
    </g>
  </g>
</svg>
