<svg xmlns="http://www.w3.org/2000/svg" xmlns:xlink="http://www.w3.org/1999/xlink" width="25" height="25" viewBox="0 0 25 25">
  <defs>
    <clipPath id="clip-path">
      <rect id="Ret창ngulo_19" data-name="Ret창ngulo 19" width="21.607" height="18.64" fill="#fff"/>
    </clipPath>
  </defs>
  <g id="Grupo_15" data-name="Grupo 15" transform="translate(-331 -111)">
    <rect id="Ret창ngulo_12" data-name="Ret창ngulo 12" width="25" height="25" rx="4" transform="translate(331 111)" fill="#206c5d"/>
    <g id="Grupo_36" data-name="Grupo 36" transform="translate(332.697 114.18)">
      <g id="Grupo_35" data-name="Grupo 35" transform="translate(0 0)" clip-path="url(#clip-path)">
        <path id="Caminho_54" data-name="Caminho 54" d="M10.229,29.841h-6a.371.371,0,0,1-.371-.371v-7.2a.371.371,0,0,1,.371-.371h6a.371.371,0,0,1,.371.371v7.2a.371.371,0,0,1-.371.371M4.6,29.1H9.858V22.641H4.6Z" transform="translate(-2.426 -13.771)" fill="#fff"/>
        <path id="Caminho_55" data-name="Caminho 55" d="M26.4,23.935h-6a.371.371,0,0,1-.371-.371V12.878a.371.371,0,0,1,.371-.371h6a.371.371,0,0,1,.371.371V23.564a.371.371,0,0,1-.371.371m-5.629-.742h5.258V13.249H20.766Z" transform="translate(-12.592 -7.865)" fill="#fff"/>
        <path id="Caminho_56" data-name="Caminho 56" d="M42.562,33.648h-6a.371.371,0,0,1-.371-.371V28.324a.371.371,0,0,1,.371-.371h6a.371.371,0,0,1,.371.371v4.953a.371.371,0,0,1-.371.371m-5.629-.742h5.258V28.7H36.933Z" transform="translate(-22.759 -17.578)" fill="#fff"/>
        <path id="Caminho_57" data-name="Caminho 57" d="M27.368,3.664A.371.371,0,0,1,27,3.293V1.3a2.715,2.715,0,0,1-.279.164A.371.371,0,1,1,26.382.8a1.449,1.449,0,0,0,.65-.588.374.374,0,0,1,.418-.2.37.37,0,0,1,.29.36V3.293a.371.371,0,0,1-.371.371" transform="translate(-16.462 0)" fill="#fff"/>
        <path id="Caminho_58" data-name="Caminho 58" d="M28.115,8.616H26.274a.371.371,0,1,1,0-.742h1.841a.371.371,0,1,1,0,.742" transform="translate(-16.289 -4.952)" fill="#fff"/>
        <path id="Caminho_59" data-name="Caminho 59" d="M11.688,13.978h-1.8a.371.371,0,0,1-.225-.666,8.418,8.418,0,0,0,1.066-.981,1.222,1.222,0,0,0,.344-1.111.259.259,0,0,0-.252-.164.517.517,0,0,0-.4.1.6.6,0,0,0-.163.383.373.373,0,0,1-.371.359h-.01a.37.37,0,0,1-.361-.375,1.347,1.347,0,0,1,.4-.913,1.234,1.234,0,0,1,.958-.292,1,1,0,0,1,.881.618,1.9,1.9,0,0,1-.462,1.877,5.723,5.723,0,0,1-.405.425h.8a.371.371,0,0,1,0,.742" transform="translate(-5.985 -6.484)" fill="#fff"/>
        <path id="Caminho_60" data-name="Caminho 60" d="M43.7,20.244a1.537,1.537,0,0,1-.989-.366.371.371,0,0,1,.478-.568.74.74,0,0,0,.869.093.483.483,0,0,0,.241-.532.4.4,0,0,0-.175-.279.988.988,0,0,0-.643-.068.371.371,0,0,1-.349-.621l.49-.5h-.672a.371.371,0,1,1,0-.742h1.553a.371.371,0,0,1,.266.63l-.531.544a1.24,1.24,0,0,1,.281.13,1.149,1.149,0,0,1,.506.75,1.213,1.213,0,0,1-.583,1.325,1.432,1.432,0,0,1-.742.2" transform="translate(-26.779 -10.476)" fill="#fff"/>
        <path id="Caminho_61" data-name="Caminho 61" d="M21.236,44.61H.371A.371.371,0,0,1,0,44.239v-2.57A.371.371,0,0,1,.371,41.3H21.236a.371.371,0,0,1,.371.371v2.57a.371.371,0,0,1-.371.371M.742,43.868H20.865V42.04H.742Z" transform="translate(0 -25.97)" fill="#fff"/>
      </g>
    </g>
  </g>
</svg>
