<svg xmlns="http://www.w3.org/2000/svg" xmlns:xlink="http://www.w3.org/1999/xlink" width="25" height="25" viewBox="0 0 25 25">
  <defs>
    <clipPath id="clip-path">
      <rect id="Ret창ngulo_24" data-name="Ret창ngulo 24" width="16.771" height="19.572" fill="#fff"/>
    </clipPath>
  </defs>
  <g id="Grupo_60" data-name="Grupo 60" transform="translate(-331 -111)">
    <rect id="Ret창ngulo_12" data-name="Ret창ngulo 12" width="25" height="25" rx="4" transform="translate(331 111)" fill="#206c5d"/>
    <g id="Grupo_59" data-name="Grupo 59" transform="translate(335.115 113.714)">
      <g id="Grupo_58" data-name="Grupo 58" clip-path="url(#clip-path)">
        <path id="Caminho_62" data-name="Caminho 62" d="M140.717,159.346h-.189a1.219,1.219,0,0,1-1.218-1.218v-5.535a.262.262,0,1,1,.525,0v5.535a.694.694,0,0,0,.693.693h.189a.694.694,0,0,0,.693-.693V155.95a.262.262,0,0,1,.525,0v2.178a1.219,1.219,0,0,1-1.218,1.218" transform="translate(-134.085 -146.619)" fill="#fff"/>
        <path id="Caminho_63" data-name="Caminho 63" d="M196.736,157.615h-.189a1.219,1.219,0,0,1-1.218-1.218v-1.833a.262.262,0,0,1,.525,0V156.4a.694.694,0,0,0,.693.693h.189a.694.694,0,0,0,.693-.693v-3.8a.262.262,0,1,1,.525,0v3.8a1.219,1.219,0,0,1-1.218,1.218" transform="translate(-188.004 -146.618)" fill="#fff"/>
        <path id="Caminho_64" data-name="Caminho 64" d="M11.539,6.224a.262.262,0,0,1-.18-.453A1.751,1.751,0,0,0,9.806,2.781a.727.727,0,0,1-.722-.269,1.177,1.177,0,0,0-.944-.469H8.134a1.187,1.187,0,0,0-.3.039.721.721,0,0,1-.827-.372A1.458,1.458,0,0,0,5.71.92H5.7a1.451,1.451,0,0,0-.6.13.719.719,0,0,1-.748-.1,1.872,1.872,0,0,0-3.05,1.285,1.893,1.893,0,0,0,.036.565.73.73,0,0,1-.255.728A1.523,1.523,0,0,0,.955,5.77a.262.262,0,1,1-.377.366A2.048,2.048,0,0,1,.76,3.118a.208.208,0,0,0,.073-.207A2.4,2.4,0,0,1,3,.006a2.391,2.391,0,0,1,1.7.535.191.191,0,0,0,.2.03A1.973,1.973,0,0,1,5.7.395H5.71A1.981,1.981,0,0,1,7.476,1.469a.2.2,0,0,0,.227.106,1.714,1.714,0,0,1,.429-.057A1.694,1.694,0,0,1,9.5,2.195a.2.2,0,0,0,.2.072,2.277,2.277,0,0,1,2.018,3.886.262.262,0,0,1-.18.072" transform="translate(0 0)" fill="#fff"/>
        <path id="Caminho_65" data-name="Caminho 65" d="M59.268,39.04a.262.262,0,0,1-.262-.262.97.97,0,0,1,.969-.969.262.262,0,0,1,0,.525.445.445,0,0,0-.444.444.262.262,0,0,1-.262.262" transform="translate(-56.793 -36.39)" fill="#fff"/>
        <path id="Caminho_66" data-name="Caminho 66" d="M23.011,165.843H15.29a1.789,1.789,0,0,1-1.787-1.787V152.232a.262.262,0,0,1,.262-.262h5.525a.262.262,0,0,1,0,.525H14.028v11.561a1.264,1.264,0,0,0,1.262,1.262h7.721a1.264,1.264,0,0,0,1.262-1.262V152.495H21.841a.262.262,0,1,1,0-.525h2.7a.262.262,0,0,1,.262.262v11.824a1.789,1.789,0,0,1-1.787,1.787" transform="translate(-12.997 -146.271)" fill="#fff"/>
        <path id="Caminho_67" data-name="Caminho 67" d="M157.382,327.966a.262.262,0,0,1-.262-.262v-2.759a.262.262,0,0,1,.525,0V327.7a.262.262,0,0,1-.262.262" transform="translate(-151.228 -312.507)" fill="#fff"/>
        <path id="Caminho_68" data-name="Caminho 68" d="M73.546,161.731a.262.262,0,0,1-.262-.262v-9.236a.262.262,0,1,1,.525,0v9.236a.262.262,0,0,1-.262.262" transform="translate(-70.536 -146.271)" fill="#fff"/>
        <path id="Caminho_69" data-name="Caminho 69" d="M241.218,279.482a.262.262,0,0,1-.262-.262v-4.648a.262.262,0,0,1,.525,0v4.648a.262.262,0,0,1-.262.262" transform="translate(-231.921 -264.023)" fill="#fff"/>
        <path id="Caminho_70" data-name="Caminho 70" d="M301,203.208a.263.263,0,0,1-.1-.5l2.629-1.121a.936.936,0,0,0,.57-.862v-4.339a.938.938,0,0,0-.937-.937H301a.262.262,0,0,1,0-.525h2.158a1.464,1.464,0,0,1,1.462,1.462v4.339a1.46,1.46,0,0,1-.889,1.345l-2.629,1.121a.262.262,0,0,1-.1.021" transform="translate(-289.457 -187.611)" fill="#fff"/>
        <path id="Caminho_71" data-name="Caminho 71" d="M301,163.626a.263.263,0,0,1-.1-.5l3.26-1.4a2.544,2.544,0,0,0,1.549-2.344v-4.339a2.551,2.551,0,0,0-2.548-2.548H301a.262.262,0,1,1,0-.525h2.158a3.076,3.076,0,0,1,3.073,3.073v4.339a3.068,3.068,0,0,1-1.868,2.827l-3.26,1.4a.262.262,0,0,1-.1.021" transform="translate(-289.457 -146.271)" fill="#fff"/>
      </g>
    </g>
  </g>
</svg>
