<svg xmlns="http://www.w3.org/2000/svg" width="25" height="25" viewBox="0 0 25 25">
  <g id="Grupo_37" data-name="Grupo 37" transform="translate(-331 -111)">
    <rect id="Retângulo_12" data-name="Retângulo 12" width="25" height="25" rx="4" transform="translate(331 111)" fill="#206c5d"/>
    <path id="person_FILL0_wght200_GRAD0_opsz24" d="M209.723-736.282a4.013,4.013,0,0,1-2.943-1.224,4.012,4.012,0,0,1-1.224-2.943,4.013,4.013,0,0,1,1.224-2.943,4.012,4.012,0,0,1,2.943-1.224,4.012,4.012,0,0,1,2.943,1.224,4.013,4.013,0,0,1,1.224,2.943,4.012,4.012,0,0,1-1.224,2.943A4.013,4.013,0,0,1,209.723-736.282Zm-9.723,8.6v-.844a2.843,2.843,0,0,1,.5-1.609,3.362,3.362,0,0,1,1.348-1.163,19.707,19.707,0,0,1,3.935-1.414,16.863,16.863,0,0,1,3.94-.471,16.862,16.862,0,0,1,3.94.471A19.707,19.707,0,0,1,217.6-731.3a3.362,3.362,0,0,1,1.348,1.163,2.842,2.842,0,0,1,.5,1.609v.844a1.4,1.4,0,0,1-.415,1.027,1.4,1.4,0,0,1-1.027.415H201.442a1.4,1.4,0,0,1-1.027-.415A1.4,1.4,0,0,1,200-727.681Zm1.389.053h16.668v-.9a1.441,1.441,0,0,0-.3-.868,2.4,2.4,0,0,0-.824-.687,17.632,17.632,0,0,0-3.536-1.273,15.529,15.529,0,0,0-3.676-.442,15.529,15.529,0,0,0-3.676.442,17.632,17.632,0,0,0-3.536,1.273,2.4,2.4,0,0,0-.824.687,1.441,1.441,0,0,0-.3.868Zm8.334-10.043a2.675,2.675,0,0,0,1.962-.816,2.675,2.675,0,0,0,.816-1.962,2.675,2.675,0,0,0-.816-1.962,2.675,2.675,0,0,0-1.962-.816,2.675,2.675,0,0,0-1.962.816,2.675,2.675,0,0,0-.816,1.962,2.675,2.675,0,0,0,.816,1.962A2.675,2.675,0,0,0,209.723-737.671ZM209.723-740.449ZM209.723-727.628Z" transform="translate(133.777 858.927)" fill="#fff"/>
  </g>
</svg>
