<svg xmlns="http://www.w3.org/2000/svg" width="20" height="20" viewBox="0 0 20 20">
  <g id="Grupo_8" data-name="Grupo 8" transform="translate(-19 -14)">
    <g id="Retângulo_8" data-name="Retângulo 8" transform="translate(19 14)" fill="none" stroke="#707070" stroke-width="1" opacity="0">
      <rect width="20" height="20" stroke="none"/>
      <rect x="0.5" y="0.5" width="19" height="19" fill="none"/>
    </g>
    <g id="_011-beer" data-name="011-beer" transform="translate(-13.949 14.924)">
      <path id="Caminho_42" data-name="Caminho 42" d="M48.871,7.983h-.957V6.823a1.594,1.594,0,0,0,0-3.008q0-.046,0-.092a2.128,2.128,0,0,0-2.4-2.109A2.124,2.124,0,0,0,42.649.788a2.126,2.126,0,0,0-3.73.889A2.13,2.13,0,0,0,36.21,3.723q0,.046,0,.092a1.594,1.594,0,0,0,0,3.008V16.5A1.587,1.587,0,0,0,37.8,18.09h8.533A1.587,1.587,0,0,0,47.914,16.5V13.3h.957a1.884,1.884,0,0,0,1.881-1.881V9.864a1.883,1.883,0,0,0-1.881-1.881ZM36.74,4.785h.091a.53.53,0,0,0,.5-.707,1.066,1.066,0,0,1,1.765-1.1.53.53,0,0,0,.883-.53A1.067,1.067,0,0,1,42,1.753a.53.53,0,0,0,.883.177,1.056,1.056,0,0,1,.778-.338,1.068,1.068,0,0,1,1.029.786.53.53,0,0,0,.707.354,1.067,1.067,0,0,1,1.4,1.347.53.53,0,0,0,.5.707h.091a.534.534,0,0,1,0,1.069H43.127a.53.53,0,0,0-.53.53V7.448a.534.534,0,1,1-1.069,0V6.384a.53.53,0,0,0-.53-.53H36.74a.534.534,0,0,1,0-1.069ZM46.854,16.5a.526.526,0,0,1-.526.526H37.8a.526.526,0,0,1-.526-.526V6.914h3.2v.534a1.594,1.594,0,0,0,3.189,0V6.914h3.2Zm2.838-5.086a.822.822,0,0,1-.821.821h-.957v-3.2h.957a.822.822,0,0,1,.821.821Z" fill="#fff"/>
      <path id="Caminho_43" data-name="Caminho 43" d="M126.051,271.125a.53.53,0,0,0-.53.53v5.322a.53.53,0,1,0,1.06,0v-5.322A.53.53,0,0,0,126.051,271.125Z" transform="translate(-87.182 -261.546)" fill="#fff"/>
      <path id="Caminho_44" data-name="Caminho 44" d="M186.3,271.125a.53.53,0,0,0-.53.53v5.322a.53.53,0,1,0,1.06,0v-5.322A.53.53,0,0,0,186.3,271.125Z" transform="translate(-145.303 -261.546)" fill="#fff"/>
      <path id="Caminho_45" data-name="Caminho 45" d="M246.551,271.125a.53.53,0,0,0-.53.53v5.322a.53.53,0,1,0,1.06,0v-5.322A.53.53,0,0,0,246.551,271.125Z" transform="translate(-203.424 -261.546)" fill="#fff"/>
      <path id="Caminho_46" data-name="Caminho 46" d="M306.8,271.125a.53.53,0,0,0-.53.53v5.322a.53.53,0,0,0,1.06,0v-5.322A.53.53,0,0,0,306.8,271.125Z" transform="translate(-261.546 -261.546)" fill="#fff"/>
    </g>
  </g>
</svg>
