<svg id="Grupo_8" data-name="Grupo 8" xmlns="http://www.w3.org/2000/svg" width="20" height="20" viewBox="0 0 20 20">
  <g id="Retângulo_8" data-name="Retângulo 8" fill="none" stroke="#707070" stroke-width="1" opacity="0">
    <rect width="20" height="20" stroke="none"/>
    <rect x="0.5" y="0.5" width="19" height="19" fill="none"/>
  </g>
  <path id="logout_FILL0_wght200_GRAD0_opsz24" d="M161.665-783.507a1.613,1.613,0,0,1-1.188-.477,1.613,1.613,0,0,1-.477-1.188v-13.163a1.613,1.613,0,0,1,.477-1.188,1.613,1.613,0,0,1,1.188-.477h6.086a.5.5,0,0,1,.368.148.5.5,0,0,1,.148.368.5.5,0,0,1-.148.368.5.5,0,0,1-.368.148h-6.086a.606.606,0,0,0-.436.2.606.606,0,0,0-.2.436v13.163a.606.606,0,0,0,.2.436.607.607,0,0,0,.436.2h6.086a.5.5,0,0,1,.368.148.5.5,0,0,1,.148.368.5.5,0,0,1-.148.368.5.5,0,0,1-.368.148Zm12.828-7.731h-8.625a.5.5,0,0,1-.368-.148.5.5,0,0,1-.148-.368.5.5,0,0,1,.148-.368.5.5,0,0,1,.368-.148h8.625l-2.032-2.032a.513.513,0,0,1-.155-.349.493.493,0,0,1,.155-.375.51.51,0,0,1,.365-.174.506.506,0,0,1,.371.168l2.694,2.694a.8.8,0,0,1,.25.583.8.8,0,0,1-.25.583l-2.694,2.694a.515.515,0,0,1-.358.158.5.5,0,0,1-.378-.164.511.511,0,0,1-.162-.368.515.515,0,0,1,.167-.362l2.026-2.026Z" transform="translate(-158.07 801.754)" fill="#fff"/>
</svg>
