<svg id="Grupo_8" data-name="Grupo 8" xmlns="http://www.w3.org/2000/svg" width="20" height="20" viewBox="0 0 20 20">
  <g id="Retângulo_8" data-name="Retângulo 8" fill="none" stroke="#707070" stroke-width="1" opacity="0">
    <rect width="20" height="20" stroke="none"/>
    <rect x="0.5" y="0.5" width="19" height="19" fill="none"/>
  </g>
  <g id="_022-barrel" data-name="022-barrel" transform="translate(3.026 0.88)">
    <path id="Caminho_80" data-name="Caminho 80" d="M74.164,8.017h0a43.45,43.45,0,0,0-1.106-6.948h.163a.534.534,0,0,0,0-1.069H61.227a.534.534,0,1,0,0,1.069h.121a30.084,30.084,0,0,0,0,16.1h-.121a.534.534,0,0,0,0,1.069H73.221a.534.534,0,0,0,0-1.069h-.163a43.453,43.453,0,0,0,1.106-6.948h0c.022-.384.033-.755.033-1.1s-.011-.72-.033-1.1ZM71.958,1.069a45.591,45.591,0,0,1,1.1,6.444H70.306c-.081-2.547-.321-5.273-.432-6.444Zm-6.323,0H68.8c.1,1.089.353,3.858.437,6.444H65.2C65.27,4.447,65.52,2.036,65.635,1.069Zm-3.171,0h2.1c-.123,1.068-.36,3.453-.427,6.444H61.365A28.981,28.981,0,0,1,62.463,1.069Zm0,16.1a28.978,28.978,0,0,1-1.1-6.444h2.766c.067,2.991.3,5.376.427,6.444Zm6.337,0H65.635c-.114-.968-.365-3.378-.434-6.444h4.036C69.154,13.313,68.905,16.082,68.8,17.171Zm3.157,0H69.874c.112-1.171.351-3.9.432-6.444h2.751A45.646,45.646,0,0,1,71.958,17.171ZM73.12,9.659h-11.8q-.005-.267-.005-.539t.005-.539h11.8c.006.185.009.365.009.539S73.126,9.474,73.12,9.659Z" transform="translate(-60.25)" fill="#fff"/>
  </g>
</svg>
