<svg xmlns="http://www.w3.org/2000/svg" xmlns:xlink="http://www.w3.org/1999/xlink" width="25" height="25" viewBox="0 0 25 25">
  <defs>
    <clipPath id="clip-path">
      <rect id="Ret창ngulo_16" data-name="Ret창ngulo 16" width="21.705" height="22.022" fill="#fff"/>
    </clipPath>
  </defs>
  <g id="Grupo_15" data-name="Grupo 15" transform="translate(-331 -111)">
    <rect id="Ret창ngulo_12" data-name="Ret창ngulo 12" width="25" height="25" rx="4" transform="translate(331 111)" fill="#206c5d"/>
    <g id="Grupo_28" data-name="Grupo 28" transform="translate(332.647 112.489)">
      <g id="Grupo_28-2" data-name="Grupo 28" clip-path="url(#clip-path)">
        <path id="Caminho_46" data-name="Caminho 46" d="M76.687,88.391a7.953,7.953,0,1,1,7.953-7.953,7.962,7.962,0,0,1-7.953,7.953m0-15.314a7.362,7.362,0,1,0,7.362,7.362,7.37,7.37,0,0,0-7.362-7.362" transform="translate(-65.834 -69.428)" fill="#fff"/>
        <path id="Caminho_47" data-name="Caminho 47" d="M10.853,22.022a2.477,2.477,0,0,1-1.281-.711.983.983,0,0,0-1.039-.183,2.477,2.477,0,0,1-1.446.23,2.477,2.477,0,0,1-.96-1.106.963.963,0,0,0-.894-.529,2.491,2.491,0,0,1-1.458-.277,2.476,2.476,0,0,1-.524-1.368.983.983,0,0,0-.678-.808,2.477,2.477,0,0,1-1.256-.753,2.49,2.49,0,0,1-.02-1.484.964.964,0,0,0-.365-.972,2.477,2.477,0,0,1-.922-1.138,2.477,2.477,0,0,1,.478-1.385.983.983,0,0,0,0-1.055A2.477,2.477,0,0,1,.009,9.1,2.477,2.477,0,0,1,.931,7.961.964.964,0,0,0,1.3,6.989a2.49,2.49,0,0,1,.02-1.484,2.477,2.477,0,0,1,1.256-.753.983.983,0,0,0,.678-.808,2.476,2.476,0,0,1,.524-1.368A2.49,2.49,0,0,1,5.232,2.3a.965.965,0,0,0,.894-.529A2.476,2.476,0,0,1,7.087.664a2.476,2.476,0,0,1,1.446.23A.983.983,0,0,0,9.572.711,2.476,2.476,0,0,1,10.853,0a2.474,2.474,0,0,1,1.28.711.983.983,0,0,0,1.039.184,2.48,2.48,0,0,1,1.448-.23,2.477,2.477,0,0,1,.96,1.106.964.964,0,0,0,.894.529,2.49,2.49,0,0,1,1.458.277,2.476,2.476,0,0,1,.524,1.368.983.983,0,0,0,.678.808,2.477,2.477,0,0,1,1.256.753,2.491,2.491,0,0,1,.02,1.484.964.964,0,0,0,.365.972A2.476,2.476,0,0,1,21.7,9.1a2.477,2.477,0,0,1-.478,1.385.983.983,0,0,0,0,1.055,2.477,2.477,0,0,1,.478,1.385,2.476,2.476,0,0,1-.923,1.138.964.964,0,0,0-.365.972,2.491,2.491,0,0,1-.02,1.484,2.477,2.477,0,0,1-1.256.753.983.983,0,0,0-.678.808,2.476,2.476,0,0,1-.524,1.368,2.49,2.49,0,0,1-1.458.277.964.964,0,0,0-.894.529,2.476,2.476,0,0,1-.96,1.106,2.476,2.476,0,0,1-1.447-.23.983.983,0,0,0-1.039.183,2.476,2.476,0,0,1-1.281.711M8.907,20.462a1.575,1.575,0,0,1,1.065.413,2.21,2.21,0,0,0,.881.555,2.213,2.213,0,0,0,.881-.555,1.575,1.575,0,0,1,1.665-.294,2.209,2.209,0,0,0,1.018.22,2.213,2.213,0,0,0,.638-.823,1.556,1.556,0,0,1,1.448-.846,2.225,2.225,0,0,0,1.049-.14A2.213,2.213,0,0,0,17.868,18a1.575,1.575,0,0,1,1.087-1.3,2.21,2.21,0,0,0,.922-.485,2.227,2.227,0,0,0-.044-1.057,1.556,1.556,0,0,1,.582-1.573,2.209,2.209,0,0,0,.7-.771,2.213,2.213,0,0,0-.394-.964,1.575,1.575,0,0,1,0-1.691,2.21,2.21,0,0,0,.394-.964,2.212,2.212,0,0,0-.7-.771,1.556,1.556,0,0,1-.582-1.573A2.224,2.224,0,0,0,19.877,5.8a2.213,2.213,0,0,0-.921-.485,1.575,1.575,0,0,1-1.087-1.3,2.21,2.21,0,0,0-.318-.992,2.226,2.226,0,0,0-1.048-.14,1.555,1.555,0,0,1-1.448-.846,2.21,2.21,0,0,0-.638-.823A2.217,2.217,0,0,0,13.4,1.44a1.576,1.576,0,0,1-1.665-.294,2.207,2.207,0,0,0-.88-.555,2.212,2.212,0,0,0-.881.555,1.575,1.575,0,0,1-1.665.294,2.208,2.208,0,0,0-1.018-.22,2.213,2.213,0,0,0-.638.823A1.556,1.556,0,0,1,5.2,2.889a2.222,2.222,0,0,0-1.049.14,2.212,2.212,0,0,0-.318.992,1.575,1.575,0,0,1-1.087,1.3,2.211,2.211,0,0,0-.922.485,2.226,2.226,0,0,0,.044,1.057A1.556,1.556,0,0,1,1.29,8.43a2.21,2.21,0,0,0-.7.771,2.213,2.213,0,0,0,.394.964,1.576,1.576,0,0,1,0,1.691,2.21,2.21,0,0,0-.394.964,2.213,2.213,0,0,0,.7.771,1.556,1.556,0,0,1,.582,1.573,2.223,2.223,0,0,0-.044,1.057,2.213,2.213,0,0,0,.921.485A1.575,1.575,0,0,1,3.837,18a2.21,2.21,0,0,0,.318.992,2.226,2.226,0,0,0,1.048.14,1.555,1.555,0,0,1,1.448.846,2.21,2.21,0,0,0,.638.823,2.214,2.214,0,0,0,1.017-.221,1.565,1.565,0,0,1,.6-.12m9.254-2.423h0Z" transform="translate(0)" fill="#fff"/>
        <path id="Caminho_48" data-name="Caminho 48" d="M129.24,218.766a1.364,1.364,0,0,1,.817.2.7.7,0,0,1,.276.6.856.856,0,0,1-.211.592,1.016,1.016,0,0,1-.583.309v.019a.736.736,0,0,1,.408.252.7.7,0,0,1,.145.447,1.02,1.02,0,0,1-.365.831,1.55,1.55,0,0,1-1.016.3h-1.083a.092.092,0,0,1-.09-.111l.714-3.378a.092.092,0,0,1,.09-.073Zm-1.023,2.961a.092.092,0,0,0,.09.111h.429a.865.865,0,0,0,.561-.166.575.575,0,0,0,.2-.473.454.454,0,0,0-.146-.364.642.642,0,0,0-.429-.125h-.413a.092.092,0,0,0-.09.072Zm.343-1.6a.092.092,0,0,0,.09.111h.372a.822.822,0,0,0,.524-.147.5.5,0,0,0,.185-.418q0-.419-.543-.419h-.367a.092.092,0,0,0-.09.073Z" transform="translate(-122.155 -209.536)" fill="#fff"/>
        <path id="Caminho_49" data-name="Caminho 49" d="M201.332,222.327h-1.7a.092.092,0,0,1-.09-.111l.714-3.378a.092.092,0,0,1,.09-.073h1.7a.092.092,0,0,1,.09.111l-.066.316a.092.092,0,0,1-.09.073h-1.164a.092.092,0,0,0-.09.073l-.166.779a.092.092,0,0,0,.09.111h1a.092.092,0,0,1,.09.11l-.063.311a.092.092,0,0,1-.09.074h-1.078a.092.092,0,0,0-.09.073l-.2.927a.092.092,0,0,0,.09.111H201.4a.092.092,0,0,1,.09.111l-.066.311a.092.092,0,0,1-.09.073" transform="translate(-191.118 -209.535)" fill="#fff"/>
        <path id="Caminho_50" data-name="Caminho 50" d="M263.517,222.327h-1.7a.092.092,0,0,1-.09-.111l.714-3.378a.092.092,0,0,1,.09-.073h1.7a.092.092,0,0,1,.09.111l-.066.316a.092.092,0,0,1-.09.073H263a.092.092,0,0,0-.09.073l-.166.779a.092.092,0,0,0,.09.111h1a.092.092,0,0,1,.09.11l-.063.311a.092.092,0,0,1-.09.074h-1.078a.092.092,0,0,0-.09.073l-.2.927a.092.092,0,0,0,.09.111h1.087a.092.092,0,0,1,.09.111l-.066.311a.092.092,0,0,1-.09.073" transform="translate(-250.68 -209.535)" fill="#fff"/>
        <path id="Caminho_51" data-name="Caminho 51" d="M324.747,220.977l-.269,1.277a.092.092,0,0,1-.09.073H324a.092.092,0,0,1-.09-.111l.714-3.378a.092.092,0,0,1,.09-.073h.749a1.313,1.313,0,0,1,.833.23.849.849,0,0,1,.29.708,1.087,1.087,0,0,1-.211.678,1.147,1.147,0,0,1-.538.374.091.091,0,0,0-.054.119l.522,1.327a.092.092,0,0,1-.085.125h-.434a.092.092,0,0,1-.086-.061l-.461-1.3a.092.092,0,0,0-.086-.061h-.314a.092.092,0,0,0-.09.073m.143-.666a.092.092,0,0,0,.09.11h.187a.906.906,0,0,0,.619-.183.639.639,0,0,0,.2-.5.438.438,0,0,0-.144-.368.723.723,0,0,0-.446-.112h-.215a.092.092,0,0,0-.09.073Z" transform="translate(-310.241 -209.535)" fill="#fff"/>
      </g>
    </g>
  </g>
</svg>
